<?xml version="1.0" encoding="UTF-8" standalone="no"?>
<svg
   xmlns:dc="http://purl.org/dc/elements/1.1/"
   xmlns:cc="http://creativecommons.org/ns#"
   xmlns:rdf="http://www.w3.org/1999/02/22-rdf-syntax-ns#"
   xmlns:svg="http://www.w3.org/2000/svg"
   xmlns="http://www.w3.org/2000/svg"
   xmlns:sodipodi="http://sodipodi.sourceforge.net/DTD/sodipodi-0.dtd"
   xmlns:inkscape="http://www.inkscape.org/namespaces/inkscape"
   aria-hidden="true"
   focusable="false"
   data-prefix="fas"
   data-icon="info-circle"
   class="svg-inline--fa fa-info-circle fa-w-16"
   role="img"
   viewBox="0 0 506 506"
   version="1.1"
   id="svg4"
   sodipodi:docname="info-circle.svg"
   inkscape:version="0.92.3 (2405546, 2018-03-11)"
   width="506"
   height="506">
  <metadata
     id="metadata10">
    <rdf:RDF>
      <cc:Work
         rdf:about="">
        <dc:format>image/svg+xml</dc:format>
        <dc:type
           rdf:resource="http://purl.org/dc/dcmitype/StillImage" />
        <dc:title></dc:title>
      </cc:Work>
    </rdf:RDF>
  </metadata>
  <defs
     id="defs8" />
  <sodipodi:namedview
     pagecolor="#ffffff"
     bordercolor="#666666"
     borderopacity="1"
     objecttolerance="10"
     gridtolerance="10"
     guidetolerance="10"
     inkscape:pageopacity="0"
     inkscape:pageshadow="2"
     inkscape:window-width="1280"
     inkscape:window-height="749"
     id="namedview6"
     showgrid="false"
     inkscape:zoom="0.4609375"
     inkscape:cx="605.54237"
     inkscape:cy="253"
     inkscape:window-x="0"
     inkscape:window-y="25"
     inkscape:window-maximized="1"
     inkscape:current-layer="svg4"
     fit-margin-top="0"
     fit-margin-left="0"
     fit-margin-right="0"
     fit-margin-bottom="0" />
  <path
     style="color:#000000;font-style:normal;font-variant:normal;font-weight:normal;font-stretch:normal;font-size:medium;line-height:normal;font-family:sans-serif;font-variant-ligatures:normal;font-variant-position:normal;font-variant-caps:normal;font-variant-numeric:normal;font-variant-alternates:normal;font-feature-settings:normal;text-indent:0;text-align:start;text-decoration:none;text-decoration-line:none;text-decoration-style:solid;text-decoration-color:#000000;letter-spacing:normal;word-spacing:normal;text-transform:none;writing-mode:lr-tb;direction:ltr;text-orientation:mixed;dominant-baseline:auto;baseline-shift:baseline;text-anchor:start;white-space:normal;shape-padding:0;clip-rule:nonzero;display:inline;overflow:visible;visibility:visible;opacity:1;isolation:auto;mix-blend-mode:normal;color-interpolation:sRGB;color-interpolation-filters:linearRGB;solid-color:#000000;solid-opacity:1;vector-effect:none;fill:#333333;fill-opacity:1;fill-rule:nonzero;stroke:none;stroke-width:10;stroke-linecap:butt;stroke-linejoin:miter;stroke-miterlimit:4;stroke-dasharray:none;stroke-dashoffset:0;stroke-opacity:1;color-rendering:auto;image-rendering:auto;shape-rendering:auto;text-rendering:auto;enable-background:accumulate"
     d="M 253,0 C 113.3394,0 0,113.37959 0,253 0,392.69884 113.34135,506 253,506 392.65865,506 506,392.69884 506,253 506,113.37959 392.6606,0 253,0 Z m 0,33.865234 C 374.06872,33.865234 472.13477,131.96718 472.13477,253 472.13477,374.10638 374.07048,472.13477 253,472.13477 131.92952,472.13477 33.865234,374.10638 33.865234,253 33.865234,131.96718 131.93128,33.865234 253,33.865234 Z M 253,120 c -20.49381,0 -37,16.50619 -37,37 0,20.49381 16.50619,37 37,37 20.49381,0 37,-16.50619 37,-37 0,-20.49381 -16.50619,-37 -37,-37 z m -44,106 c -3.92442,0 -7,3.07558 -7,7 v 24 c 0,3.92442 3.07558,7 7,7 h 17 v 74 h -17 c -3.92442,0 -7,3.07558 -7,7 v 24 c 0,3.92442 3.07558,7 7,7 h 88 c 3.92442,0 7,-3.07558 7,-7 v -24 c 0,-3.92442 -3.07558,-7 -7,-7 H 280 V 233 c 0,-3.92442 -3.07558,-7 -7,-7 z"
     id="path850"
     inkscape:connector-curvature="0" />
</svg>
